<svg xmlns="http://www.w3.org/2000/svg" viewBox="0 0 200 200" width="200" height="200">
  <defs>
    <linearGradient id="logoGradient" x1="0%" y1="0%" x2="100%" y2="100%">
      <stop offset="0%" style="stop-color:#007bff;stop-opacity:1" />
      <stop offset="100%" style="stop-color:#0056b3;stop-opacity:1" />
    </linearGradient>
  </defs>
  
  <!-- Cercle de fond -->
  <circle cx="100" cy="100" r="90" fill="url(#logoGradient)" />
  
  <!-- Icône Docker stylisée -->
  <g transform="translate(50, 60)">
    <!-- Conteneurs empilés -->
    <rect x="10" y="40" width="20" height="15" fill="white" opacity="0.9" rx="2"/>
    <rect x="35" y="40" width="20" height="15" fill="white" opacity="0.9" rx="2"/>
    <rect x="60" y="40" width="20" height="15" fill="white" opacity="0.9" rx="2"/>
    <rect x="85" y="40" width="20" height="15" fill="white" opacity="0.9" rx="2"/>
    
    <rect x="10" y="20" width="20" height="15" fill="white" opacity="0.8" rx="2"/>
    <rect x="35" y="20" width="20" height="15" fill="white" opacity="0.8" rx="2"/>
    <rect x="60" y="20" width="20" height="15" fill="white" opacity="0.8" rx="2"/>
    
    <rect x="35" y="0" width="20" height="15" fill="white" opacity="0.7" rx="2"/>
    <rect x="60" y="0" width="20" height="15" fill="white" opacity="0.7" rx="2"/>
    
    <!-- Vague stylisée en bas -->
    <path d="M 0 70 Q 25 60 50 70 T 100 70 L 100 80 L 0 80 Z" fill="white" opacity="0.6"/>
  </g>
  
  <!-- Texte -->
  <text x="100" y="145" font-family="Arial, sans-serif" font-size="14" font-weight="bold" text-anchor="middle" fill="white">
    TUTO
  </text>
  <text x="100" y="165" font-family="Arial, sans-serif" font-size="12" text-anchor="middle" fill="white" opacity="0.9">
    DOCKER
  </text>
</svg>
